<?xml version="1.0" standalone="no"?>
<!DOCTYPE svg PUBLIC "-//W3C//DTD SVG 20010904//EN"
 "http://www.w3.org/TR/2001/REC-SVG-20010904/DTD/svg10.dtd">
<svg version="1.0" xmlns="http://www.w3.org/2000/svg"
 width="352.000000pt" height="153.000000pt" viewBox="0 0 352.000000 153.000000"
 preserveAspectRatio="xMidYMid meet">
<g transform="translate(0.000000,153.000000) scale(0.100000,-0.100000)"
fill="#000000" stroke="none">
<path d="M735 1380 c-119 -25 -210 -77 -312 -176 -80 -78 -75 -80 -93 26 -6
36 -16 82 -21 103 l-10 37 -110 0 -111 0 7 -27 c47 -186 55 -294 55 -785 l0
-448 115 0 115 0 0 366 0 366 37 72 c45 85 136 179 213 220 42 23 71 31 131
34 95 6 137 -8 183 -58 67 -74 69 -94 74 -573 l4 -427 115 0 115 0 -5 453 c-3
381 -7 462 -21 516 -37 142 -116 241 -224 281 -63 24 -194 34 -257 20z"/>
<path d="M619 816 c-157 -56 -235 -220 -200 -421 20 -112 72 -191 160 -243 90
-52 314 -39 356 21 19 28 19 40 -3 67 l-17 22 -50 -20 c-117 -45 -204 -33
-268 37 -46 51 -62 105 -61 212 0 73 4 94 28 142 32 66 77 98 145 105 72 7
115 -16 133 -70 13 -39 18 -43 51 -46 29 -3 39 2 52 22 36 54 -26 152 -112
175 -52 15 -170 13 -214 -3z"/>

</g>
</svg>
