<?xml version="1.0" standalone="no"?>
<!DOCTYPE svg PUBLIC "-//W3C//DTD SVG 20010904//EN"
 "http://www.w3.org/TR/2001/REC-SVG-20010904/DTD/svg10.dtd">
<svg version="1.0" xmlns="http://www.w3.org/2000/svg"
 width="352.000000pt" height="153.000000pt" viewBox="0 0 352.000000 153.000000"
 preserveAspectRatio="xMidYMid meet">
<g transform="translate(0.000000,153.000000) scale(0.100000,-0.100000)"
fill="#000000" stroke="none">
<path d="M735 1380 c-119 -25 -210 -77 -312 -176 -80 -78 -75 -80 -93 26 -6
36 -16 82 -21 103 l-10 37 -110 0 -111 0 7 -27 c47 -186 55 -294 55 -785 l0
-448 115 0 115 0 0 366 0 366 37 72 c45 85 136 179 213 220 42 23 71 31 131
34 95 6 137 -8 183 -58 67 -74 69 -94 74 -573 l4 -427 115 0 115 0 -5 453 c-3
381 -7 462 -21 516 -37 142 -116 241 -224 281 -63 24 -194 34 -257 20z"/>
<path d="M619 816 c-157 -56 -235 -220 -200 -421 20 -112 72 -191 160 -243 90
-52 314 -39 356 21 19 28 19 40 -3 67 l-17 22 -50 -20 c-117 -45 -204 -33
-268 37 -46 51 -62 105 -61 212 0 73 4 94 28 142 32 66 77 98 145 105 72 7
115 -16 133 -70 13 -39 18 -43 51 -46 29 -3 39 2 52 22 36 54 -26 152 -112
175 -52 15 -170 13 -214 -3z"/>
<path d="M2672 321 c4 -220 8 -231 85 -231 36 0 43 3 43 19 0 12 -9 21 -25 25
-15 4 -30 18 -35 32 -6 14 -10 97 -10 185 l0 159 -31 0 -30 0 3 -189z"/>
<path d="M1430 290 l0 -200 30 0 30 0 0 130 c0 72 3 130 8 130 4 0 40 -59 81
-130 67 -120 75 -130 102 -130 l29 0 0 200 0 200 -30 0 -30 0 0 -137 0 -138
-78 137 c-74 132 -78 138 -109 138 l-33 0 0 -200z"/>
<path d="M2033 471 c-52 -32 -77 -93 -77 -181 1 -84 16 -123 64 -163 50 -42
137 -48 184 -12 19 14 19 16 2 34 -17 19 -20 19 -52 3 -67 -31 -124 17 -132
112 -6 76 4 119 35 150 28 28 66 33 108 14 21 -10 29 -9 43 5 15 16 15 18 -1
34 -27 27 -133 29 -174 4z"/>
<path d="M2406 390 c-105 -33 -130 -188 -43 -269 37 -33 111 -39 154 -12 85
53 91 211 10 264 -32 20 -85 28 -121 17z m82 -62 c26 -29 36 -69 28 -114 -14
-72 -76 -97 -116 -46 -31 38 -25 136 9 163 31 25 53 24 79 -3z"/>
<path d="M2941 383 c-50 -26 -74 -64 -78 -125 -9 -125 106 -208 205 -148 28
17 31 23 22 40 -10 19 -13 19 -40 5 -16 -8 -39 -15 -50 -15 -22 0 -80 50 -80
69 0 7 37 11 105 11 l105 0 0 38 c0 98 -106 169 -189 125z"/>
<path d="M3260 384 c-35 -25 -40 -34 -40 -75 0 -43 19 -63 86 -88 60 -23 77
-46 50 -67 -23 -16 -69 -18 -96 -4 -15 8 -21 6 -30 -11 -13 -23 -13 -22 17
-38 26 -13 83 -14 116 -2 40 15 57 40 57 81 0 44 -19 62 -94 90 -43 16 -56 41
-35 66 10 12 24 15 60 10 38 -5 48 -3 53 10 10 26 -8 37 -66 41 -39 3 -59 0
-78 -13z"/>
</g>
</svg>
