<svg width="130" height="65" xmlns="http://www.w3.org/2000/svg">
 <!-- Created with Method Draw - http://github.com/duopixel/Method-Draw/ -->

 <g>
  <g display="none" overflow="visible" y="0" x="0" height="100%" width="100%" id="canvasGrid">
   <rect fill="url(#gridpattern)" stroke-width="0" y="0" x="0" height="100%" width="100%"/>
  </g>
 </g>
 <g>
  <title>Layer 1</title>
  <text xml:space="preserve" text-anchor="start" font-family="'Palatino Linotype', 'Book Antiqua', Palatino, serif" font-size="20" id="svg_29" y="52.5" x="52" fill-opacity="null" stroke-opacity="null" stroke-width="0" stroke="#000" fill="#000000">N Coles</text>
  <g id="svg_36">
   <g id="svg_33" fill="#000000" transform="matrix(0.0378788, 0, 0, -0.0378788, 0, 57.9546)">
    <path id="svg_34" fill="black" d="m735,1343.442383c-119,-25 -210,-77 -312,-176c-80,-78 -75,-80 -93,26c-6,36 -16,82 -21,103l-10,37l-110,0l-111,0l7,-27c47,-186 55,-294 55,-785l0,-448l115,0l115,0l0,366l0,366l37,72c45,85 136,179 213,220c42,23 71,31 131,34c95,6 137,-8 183,-58c67,-74 69,-94 74,-573l4,-427l115,0l115.000977,0l-5,453c-3,381 -7,462 -21,516c-37.000977,142 -116.000977,241 -224.000977,281c-63,24 -194,34 -257,20z"/>
    <path id="svg_35" fill="#7E7C7E" d="m619,779.442383c-157,-56 -235,-220 -200,-421c20,-112 72,-191 160,-243c90,-52 314,-39 356,21c19,28 19,40 -3,67l-17,22l-50,-20c-117,-45 -204,-33 -268,37c-46,51 -62,105 -61,212c0,73 4,94 28,142c32,66 77,98 145,105c72,7 115,-16 133,-70c13,-39 18,-43 51,-46c29,-3 39,2 52,22c36,54 -26,152 -112,175c-52,15 -170,13 -214,-3z"/>
   </g>
  </g>
 </g>
</svg>