<svg width="144" height="145" xmlns="http://www.w3.org/2000/svg">
 <!-- Created with Method Draw - http://github.com/duopixel/Method-Draw/ -->

 <g>
  <title>background</title>
  <rect fill="#fff" id="canvas_background" height="147" width="146" y="-1" x="-1"/>
  <g display="none" overflow="visible" y="0" x="0" height="100%" width="100%" id="canvasGrid">
   <rect fill="url(#gridpattern)" stroke-width="0" y="0" x="0" height="100%" width="100%"/>
  </g>
 </g>
 <g>
  <title>Layer 1</title>
  <!-- Created with Method Draw - http://github.com/duopixel/Method-Draw/ -->
  <g transform="matrix(0.025641, 0, 0, 0.025641, 0, 0)" id="svg_14">
   <g transform="translate(0, 163.998)" id="svg_12" display="none">
    <rect id="svg_15" width="100%" height="100%" x="0" y="0" stroke-width="0" fill="url(#gridpattern)"/>
   </g>
  </g>
  <g transform="matrix(0.025641, 0, 0, 0.025641, 0, 0)" id="svg_16">
   <title>Layer 1</title>
   <g id="svg_8">
    <g transform="matrix(0.0378788, 0, 0, -0.0378788, 0, 57.9546)" fill="#000000" id="svg_9">
     <path d="m735,-2986.108887c-119,-25 -210,-77 -312,-176c-80,-78 -75,-80 -93,26c-6,36 -16,82 -21,103l-10,37l-110,0l-111,0l7,-27c47,-186 55,-294 55,-785l0,-448l115,0l115,0l0,366l0,366l37,72c45,85 136,179 213,220c42,23 71,31 131,34c95,6 137,-8 183,-58c67,-74 69,-94 74,-573l4,-427l115,0l115.000977,0l-5,453c-3,381 -7,462 -21,516c-37.000977,142 -116.000977,241 -224.000977,281c-63,24 -194,34 -257,20z" fill="black" id="svg_11"/>
     <path d="m619,-3550.108887c-157,-56 -235,-220 -200,-421c20,-112 72,-191 160,-243c90,-52 314,-39 356,21c19,28 19,40 -3,67l-17,22l-50,-20c-117,-45 -204,-33 -268,37c-46,51 -62,105 -61,212c0,73 4,94 28,142c32,66 77,98 145,105c72,7 115,-16 133,-70c13,-39 18,-43 51,-46c29,-3 39,2 52,22c36,54 -26,152 -112,175c-52,15 -170,13 -214,-3z" fill="#7E7C7E" id="svg_10"/>
    </g>
   </g>
  </g>
  <!-- Created with Method Draw - http://github.com/duopixel/Method-Draw/ -->
  <g id="svg_34">
   <g transform="matrix(2.93453, 0, 0, 2.91577, -7.56862, -496.573)" id="svg_31">
    <g transform="translate(0, 164.001)" id="svg_29" display="none">
     <rect id="svg_32" width="100%" height="100%" x="0" y="0" stroke-width="0" fill="url(#gridpattern)"/>
    </g>
   </g>
   <g transform="matrix(2.93453, 0, 0, 2.91577, -7.56862, -496.573)" id="svg_33">
    <title>Layer 1</title>
    <g id="svg_25">
     <g transform="matrix(0.0378788, 0, 0, -0.0378788, 0, 57.9546)" fill="#000000" id="svg_26">
      <path d="m735,-2986.172363c-119,-25 -210,-77 -312,-176c-80,-78 -75,-80 -93,26c-6,36 -16,82 -21,103l-10,37l-110,0l-111,0l7,-27c47,-186 55,-294 55,-785l0,-448l115,0l115,0l0,366l0,366l37,72c45,85 136,179 213,220c42,23 71,31 131,34c95,6 137,-8 183,-58c67,-74 69,-94 74,-573l4,-427l115,0l115.000977,0l-5,453c-3,381 -7,462 -21,516c-37.000977,142 -116.000977,241 -224.000977,281c-63,24 -194,34 -257,20z" fill="black" id="svg_28"/>
      <path d="m619,-3550.172363c-157,-56 -235,-220 -200,-421c20,-112 72,-191 160,-243c90,-52 314,-39 356,21c19,28 19,40 -3,67l-17,22l-50,-20c-117,-45 -204,-33 -268,37c-46,51 -62,105 -61,212c0,73 4,94 28,142c32,66 77,98 145,105c72,7 115,-16 133,-70c13,-39 18,-43 51,-46c29,-3 39,2 52,22c36,54 -26,152 -112,175c-52,15 -170,13 -214,-3z" fill="#7E7C7E" id="svg_27"/>
     </g>
    </g>
   </g>
  </g>
 </g>
</svg>